<svg xmlns="http://www.w3.org/2000/svg" viewBox="0 0 284.94 45.88"><defs><style>.cls-1{fill:#200;}</style></defs><g id="レイヤー_2" data-name="レイヤー 2"><g id="ヘッダフッター"><path class="cls-1" d="M4.69,45.67V42.6H1.52v3.07H0V38.45H1.52v2.78H4.69V38.45H6.21v7.22Zm6.9-7.42a3.8,3.8,0,1,0,3.8,3.81A3.81,3.81,0,0,0,11.59,38.25Zm0,6.13a2.33,2.33,0,1,1,2.33-2.32A2.32,2.32,0,0,1,11.59,44.38Zm13.14,1.29V38.45h1.55v7.22ZM38,42.77V38.45H36.44v4.49a2.82,2.82,0,0,0,3.08,2.92,2.82,2.82,0,0,0,3.09-2.92V38.45H41.09v4.32a1.57,1.57,0,1,1-3.13,0Zm-16.59,2.9h1.69l-1.83-3a2,2,0,0,0,1.44-2c0-1.65-1.37-2.18-2.76-2.18H17v7.22h1.54V42.89h1.26Zm-2.89-6H20a1.1,1.1,0,0,1,1.16,1,1.18,1.18,0,0,1-1.27,1.1H18.48Zm29.44,6.24a4.06,4.06,0,0,0,2-.46V43.8a3.84,3.84,0,0,1-1.48.48c-.13,0-.26,0-.4,0a2.46,2.46,0,0,1-1.74-.65,2.32,2.32,0,0,1,0-3.2A2.41,2.41,0,0,1,48,39.82a2.61,2.61,0,0,1,.4,0,4,4,0,0,1,1.48.47V38.74a4.43,4.43,0,0,0-2-.46A3.7,3.7,0,0,0,45,39.61a3.77,3.77,0,0,0-.91,2.47h0A3.77,3.77,0,0,0,45,44.55a3.7,3.7,0,0,0,2.92,1.33m8.74-.21V42.6H53.5v3.07H52V38.45H53.5v2.78h3.16V38.45h1.53v7.22Zm3.91,0V38.45h1.55v7.22Zm10.76.21a4,4,0,0,0,2-.46V43.8a3.84,3.84,0,0,1-1.48.48l-.39,0a2.47,2.47,0,0,1-1.75-.65,2.17,2.17,0,0,1-.64-1.6,2.13,2.13,0,0,1,.65-1.6,2.38,2.38,0,0,1,1.74-.64,2.55,2.55,0,0,1,.39,0,4,4,0,0,1,1.48.47V38.74a4.43,4.43,0,0,0-2-.46,3.67,3.67,0,0,0-2.91,1.33,3.73,3.73,0,0,0-.92,2.47h0a3.73,3.73,0,0,0,.92,2.47,3.67,3.67,0,0,0,2.91,1.33m7.12-7.63a3.8,3.8,0,1,0,3.8,3.81A3.81,3.81,0,0,0,78.45,38.25Zm0,6.13a2.33,2.33,0,1,1,2.33-2.32A2.32,2.32,0,0,1,78.45,44.38ZM92,39.81v1.62h2.84v1.36H92v2.88h-1.5V38.45h4.9v1.36Zm17.08,0V38.45h-4.9v7.22h4.9V44.3h-3.4V42.75h2.84V41.38h-2.84V39.81ZM33.29,44.35A4.09,4.09,0,0,1,31,44.21a2.22,2.22,0,0,1-1.3-2.16,2.35,2.35,0,0,1,1.72-2.25,2.88,2.88,0,0,1,.86-.11,3.81,3.81,0,0,1,2,.54V38.75a4.56,4.56,0,0,0-2.41-.46,3.66,3.66,0,0,0-3.66,3.77,3.88,3.88,0,0,0,1.86,3.32,5.06,5.06,0,0,0,4.54-.08V41.42H31.89v1.22h1.4Zm52-4.54v1.62h2.84v1.36H85.29v2.88h-1.5V38.45h4.89v1.36Zm16.9,0V38.45h-4.9v7.22h4.9V44.3H98.8V42.75h2.83V41.38H98.8V39.81ZM85.58,1.14V0H60.66V1.14c.08,0,8.12,1.76,8.91,8.75a1.92,1.92,0,0,1-1.51,2.33h-27a1.91,1.91,0,0,1-1.5-2.33c.79-7,8.83-8.75,8.91-8.75V0H23.57V1.14c.08,0,8.12,1.76,8.91,8.75A1.91,1.91,0,0,1,31,12.22h-7.4v2.55H31a1.92,1.92,0,0,1,1.51,2.33c-.79,7-8.83,8.75-8.91,8.75V27H48.5V25.85c-.08,0-8.12-1.75-8.91-8.75a1.91,1.91,0,0,1,1.5-2.33h27a1.93,1.93,0,0,1,1.51,2.33c-.79,7-8.83,8.75-8.91,8.75V27H85.58V25.85c-.07,0-8.11-1.75-8.9-8.75a1.91,1.91,0,0,1,1.5-2.33h7.4V12.22h-7.4a1.91,1.91,0,0,1-1.5-2.33C77.47,2.9,85.51,1.14,85.58,1.14Z"/><path class="cls-1" d="M144.34,26.37a6.6,6.6,0,0,1-8.38,0,6.87,6.87,0,0,1-2-5.27,6.74,6.74,0,0,1,2-5.27,6.6,6.6,0,0,1,8.38,0,6.8,6.8,0,0,1,1.93,5.27A6.93,6.93,0,0,1,144.34,26.37Zm-1.67-1.94a5.24,5.24,0,0,0,.93-3.33,5.28,5.28,0,0,0-.93-3.33,3.32,3.32,0,0,0-5.06,0,5.18,5.18,0,0,0-.94,3.33,5.18,5.18,0,0,0,.94,3.33,3.32,3.32,0,0,0,5.06,0Z"/><path class="cls-1" d="M150.09,14.73h2.8L158,23.64V14.73h2.49V27.51h-2.67l-5.21-9.07v9.07h-2.49Z"/><path class="cls-1" d="M164.8,14.73h2.67V25.21h6.38v2.3h-9Z"/><path class="cls-1" d="M179.82,27.51h-2.66V14.73h2.66Z"/><path class="cls-1" d="M184.12,14.73h2.8L192,23.64V14.73h2.49V27.51h-2.68l-5.2-9.07v9.07h-2.49Z"/><path class="cls-1" d="M208.24,17h-6.77V19.7h6.21v2.22h-6.21v3.29h7.08v2.3h-9.69V14.73h9.38Z"/><path class="cls-1" d="M221,23.56a2.66,2.66,0,0,0,.49,1.31,2.82,2.82,0,0,0,2.28.79,4.82,4.82,0,0,0,1.56-.21A1.48,1.48,0,0,0,226.52,24a1.1,1.1,0,0,0-.56-1,6.58,6.58,0,0,0-1.78-.6l-1.38-.3a8.74,8.74,0,0,1-2.81-1,3.12,3.12,0,0,1-1.29-2.77A3.66,3.66,0,0,1,220,15.49a5.37,5.37,0,0,1,3.71-1.14,5.72,5.72,0,0,1,3.49,1.07,3.84,3.84,0,0,1,1.52,3.11h-2.57a1.84,1.84,0,0,0-1-1.64,3.6,3.6,0,0,0-1.59-.32,3,3,0,0,0-1.69.42,1.3,1.3,0,0,0-.64,1.16,1.08,1.08,0,0,0,.63,1,6.94,6.94,0,0,0,1.7.53l2.24.53a5.66,5.66,0,0,1,2.21.93,3.13,3.13,0,0,1,1.14,2.61,3.67,3.67,0,0,1-1.35,2.91,5.73,5.73,0,0,1-3.83,1.16,6.27,6.27,0,0,1-4-1.14,3.8,3.8,0,0,1-1.45-3.14Z"/><path class="cls-1" d="M242.06,14.73V17h-3.83V27.51h-2.68V17H231.7V14.73Z"/><path class="cls-1" d="M255,26.37a6.6,6.6,0,0,1-8.38,0,6.9,6.9,0,0,1-1.94-5.27,6.77,6.77,0,0,1,1.94-5.27,6.6,6.6,0,0,1,8.38,0A6.76,6.76,0,0,1,257,21.1,6.9,6.9,0,0,1,255,26.37Zm-1.67-1.94a5.24,5.24,0,0,0,.93-3.33,5.28,5.28,0,0,0-.93-3.33,3,3,0,0,0-2.52-1.17,3.08,3.08,0,0,0-2.53,1.17,5.18,5.18,0,0,0-1,3.33,5.18,5.18,0,0,0,1,3.33,3.08,3.08,0,0,0,2.53,1.17A3,3,0,0,0,253.35,24.43Z"/><path class="cls-1" d="M269,15.06a3.2,3.2,0,0,1,1.2.89A4,4,0,0,1,270.8,17a3.61,3.61,0,0,1,.24,1.35,3.91,3.91,0,0,1-.46,1.79,2.54,2.54,0,0,1-1.52,1.24,2.4,2.4,0,0,1,1.25,1,4.18,4.18,0,0,1,.37,2v.86a7.19,7.19,0,0,0,.07,1.19,1.08,1.08,0,0,0,.5.73v.32H268.3c-.08-.28-.14-.51-.18-.68a6.73,6.73,0,0,1-.11-1.11l0-1.19a2.44,2.44,0,0,0-.42-1.63,2.17,2.17,0,0,0-1.52-.4h-2.61v5h-2.61V14.73h6.11A5.25,5.25,0,0,1,269,15.06ZM263.44,17v3.43h2.87a3,3,0,0,0,1.29-.21,1.44,1.44,0,0,0,.76-1.44,1.62,1.62,0,0,0-.74-1.56,2.62,2.62,0,0,0-1.23-.22Z"/><path class="cls-1" d="M284.63,17h-6.77V19.7h6.21v2.22h-6.21v3.29h7.08v2.3h-9.69V14.73h9.38Z"/></g></g></svg>