<?xml version="1.0" encoding="UTF-8"?>
<svg xmlns="http://www.w3.org/2000/svg" width="1545.98" height="407.92" viewBox="0 0 1545.98 407.92">
  <g id="text_C_down">
    <path d="M446.38,200.9c-9.55,3.82-19.93,7.28-29.84,9.67v.48c0,1.91-.72,3.58-2.15,3.58-3.58,0-7.76-16.47-8-17.78,2.63.48,5.13.72,7.28.84,1.79,0,3.82.12,5.73.12,1.31-4.77,4.06-16.95,4.06-23.51v-1.07c-11.46,15.04-22.56,20.41-24.11,21.01,3.34,2.74,6.21,6.33,6.21,10.62s-3.22,8-7.4,8c-3.22,0-5.01-2.86-5.13-5.97,0-.84-.12-1.91-.24-3.1-.96.48-2.03.84-2.98,1.19v29.24c0,1.07.6,17.19.6,23.27v.12c0,2.98-3.7,4.54-8.95,4.54-3.7,0-5.37-1.31-5.37-3.7v-.24c.12-2.15.36-5.37.36-8.24s.12-9.67.12-14.92v-10.86c-.36.12-.84.24-1.19.24-5.49,18.26-15.28,30.91-17.07,30.91-.6,0-.96-.48-.96-1.07,0-.36.12-.84.24-1.07,5.13-15.75,5.37-31.27,5.37-32.94,0-1.19,0-2.51-.24-3.94,5.13.72,11.22,2.27,13.84,3.34v-10.03c-3.22.95-6.21,1.91-8.95,2.63,0,2.15-.84,4.18-2.39,4.18-2.75,0-6.09-11.22-6.92-16.11,2.51.12,5.01.36,6.8.36h5.13c1.91-2.74,3.7-5.73,5.49-8.71-1.19.84-2.63,1.31-3.7,1.31-2.86,0-5.25-2.27-5.97-5.01-1.91-7.52-2.74-10.26-6.8-13.73-.72-.6-1.07-1.07-1.07-1.43s.48-.84,1.31-.84c2.98,0,7.4,1.55,9.91,2.51,4.54-13.13,4.54-21.25,4.54-22.44v-1.79c2.27.36,19.45,3.94,19.45,7.76,0,1.43-1.55,2.15-3.7,2.15-.36,0-.72-.12-1.07-.12-4.42,5.85-9.91,12.05-15.04,16.59,4.65,2.98,5.37,6.21,5.37,8.47v.48c4.18-8.24,7.16-16.23,7.4-20.17,4.77,1.31,17.43,5.61,17.43,9.43,0,1.31-1.43,2.03-3.1,2.03-.24,0-.6,0-.84-.12-.24,0-.48,0-.72-.12-7.52,8.95-15.4,17.19-23.27,23.75,5.37-.12,10.98-.36,16.47-.84-.6-2.87-1.55-5.97-3.34-8.71-.36-.48-.72-1.07-.72-1.55s.48-.72.84-.72c1.19,0,5.37,1.67,9.19,4.54,0-.36.24-.72.72-1.31,9.43-11.22,15.87-30.44,16.23-38.43,5.01,1.19,18.98,5.13,18.98,8.47,0,1.67-1.55,2.51-3.58,2.51-.36,0-.84,0-1.19-.12-1.91,2.98-3.7,5.73-5.61,8.24,4.89.95,18.26,3.82,18.26,7.16,0,1.55-1.79,2.39-4.3,2.39h-.36c-3.82,5.85-8,10.86-12.65,15.52,6.8-.12,13.85-.6,20.41-1.07-1.07-2.98-2.86-5.97-5.61-8.95-.6-.72-.84-1.07-.84-1.43,0-.24.48-.72.95-.72,1.19,0,21.36,5.73,21.36,17.55,0,5.13-3.7,8.71-7.4,8.71-2.27,0-3.7-.84-4.65-2.74-.48-.96-.95-2.15-1.43-3.58l-1.19-4.65ZM393.26,231.09c0-4.77-.36-9.43-2.86-14.44-.24-.48-.36-.95-.36-1.43,0-.36.12-.95.84-.95.84,0,14.68,8.24,14.68,17.9,0,2.03-1.31,8.35-7.28,8.35-3.34,0-5.01-3.1-5.01-6.21v-3.22ZM397.2,247.8c0-2.51,1.31-5.37,4.06-6.92,5.61-3.34,8.59-6.8,10.26-13.85.36-1.43.95-1.91,1.31-1.91.6,0,2.39,6.09,2.39,12.17,0,12.53-6.21,17.55-11.46,17.55-1.07,0-6.56-.24-6.56-7.04ZM451.39,241.72c0,1.31.6,2.39,1.19,2.63,3.1,1.79,3.58,3.58,3.58,5.49,0,7.88-9.31,10.5-21.84,10.5-7.28,0-17.43-.36-17.43-13.01v-.36s.24-14.44.24-17.43c0-3.58-.36-9.43-1.07-12.77,4.3.12,11.7,1.31,14.68,2.15,1.55.48,2.63,1.43,2.63,2.74,0,1.19-1.07,2.15-3.1,2.75-.48,4.18-.48,17.78-.48,17.78v.6c0,4.3,1.79,4.89,5.37,4.89,8.47,0,10.03-2.39,12.65-10.38,1.19-4.42,1.67-6.33,2.75-6.33.48,0,1.07.6,1.07,2.03l-.24,8.71ZM433.13,220.11c-1.43-2.63-3.34-5.37-6.45-7.52-1.07-.72-1.43-1.19-1.43-1.55s.48-.84,1.43-.84c5.01,0,21.6,3.22,21.6,12.89,0,4.65-3.7,7.88-6.68,7.88-1.91,0-3.7-1.07-4.89-3.34-1.31-2.15-2.15-4.89-3.58-7.52ZM439.22,153.04c1.31.12,2.15,1.19,2.74,2.27.72,1.19,1.19,2.51,1.91,3.7,5.73,8.95,16.47,17.43,27.09,20.53.72.24,1.43.6,1.43,1.31,0,.48-.6,1.07-1.55,1.43-4.54,1.79-10.38,4.18-12.65,7.4-.24.48-.96.84-1.43.84s-8.59-1.91-16.23-28.64c-.48-1.91-2.27-4.18-4.06-5.01-.84-.48-1.19-.96-1.19-1.67,0-1.31,1.79-2.15,3.7-2.15h.24ZM456.76,245.18c-2.51-11.58-3.34-13.49-7.4-17.9-.48-.6-.84-1.07-.84-1.55s.48-.72.84-.72c1.91,0,21.48,5.25,21.48,17.43,0,4.89-4.06,8.83-7.88,8.83-3.22,0-5.49-2.86-6.21-6.09Z" style="fill: #fff;"/>
    <path d="M528.5,201.14c-4.77,0-15.64.48-19.45.84-1.31-1.07-2.27-2.98-2.51-5.13-15.16,11.58-28.64,16.59-30.44,16.59-.36,0-1.07-.12-1.07-.84,0-.6.72-1.43,1.79-2.03,23.39-15.16,41.89-45.35,45.35-60.39,0,0,21.96,3.82,21.96,8.12,0,1.43-1.43,2.39-3.82,2.63,11.82,15.28,29.48,27.09,50.37,32.82.6.12,1.07.48,1.07,1.19,0,.6-.6,1.07-1.07,1.31-5.85,2.39-12.77,5.85-15.75,9.79-.48.72-1.19.95-1.91.95-3.58,0-24.23-15.64-35.81-44.4-8.47,14.44-19.45,25.42-29.72,33.42,5.13.72,16.11,1.07,21.01,1.07h7.4c2.03-3.22,7.28-10.5,8.83-10.5,2.87,0,13.73,9.79,13.73,12.41,0,1.31-.95,2.15-2.51,2.15h-27.45ZM569.2,257.59c0,4.77-10.03,5.13-10.62,5.13-3.22,0-6.21-1.07-6.21-3.94v-.24c0-.48.12-2.87.12-4.89h-39.03c0,1.79.12,4.65.12,5.13,0,4.42-9.79,4.65-10.03,4.65-3.22,0-6.45-1.07-6.45-3.46v-.36c.12-1.19.48-4.54.48-6.21.12-2.86.36-9.43.36-13.37v-11.34c0-4.06-.36-12.77-1.31-17.55,5.73,1.67,13.25,4.65,17.78,7.16h37.24c1.79-2.74,5.73-6.68,6.92-6.68,1.55,0,14.44,6.45,14.44,10.26,0,1.55-1.43,2.98-4.3,4.06-.12,1.79-.24,4.54-.24,7.16,0,3.82.12,7.4.12,7.4,0,3.22.24,8.71.36,11.7,0,1.67.24,4.54.24,5.25v.12ZM552.72,222.62h-39.27v26.74h39.15c0-2.51.12-5.85.12-7.4v-19.34Z" style="fill: #fff;"/>
    <path d="M660.86,225.6c0,5.37.12,10.38.12,10.38,0,2.63.36,8.12.36,9.67v.24c0,15.52-18.02,17.07-20.53,17.07-1.79,0-2.75-.6-3.46-2.03-2.27-5.01-7.88-7.52-15.99-10.86-1.43-.6-2.15-1.31-2.15-1.91,0-.48.48-1.07,2.15-1.07.24,0,.6.12,1.07.12,12.77,1.07,15.52,1.07,15.99,1.07,4.3,0,6.92-2.51,6.92-6.33l.12-16.35h-15.75s-20.89.12-27.21.84c-1.67-1.31-2.15-3.82-2.51-6.21,5.49.48,21.48.95,32.58.95h12.89c0-3.7-.24-9.55-1.19-12.89,3.7.12,7.4.6,10.74,1.07,2.86-3.1,5.97-6.92,8.24-9.91h-13.37c-3.94,0-21.25.36-27.21.96-1.55-1.43-2.27-3.7-2.63-6.21,8,.6,25.78,1.19,29.96,1.19h14.08c1.67-1.91,5.61-5.73,7.04-5.73.6,0,2.98.36,9.79,5.73,1.79-3.82,3.58-8.24,5.01-12.41h-67.08v1.19c0,13.25-6.45,19.1-13.25,19.1-5.49,0-7.88-4.18-7.88-7.88,0-4.18,2.98-7.04,5.37-8.35,6.21-3.7,9.67-7.52,11.46-14.8.48-1.79,1.19-2.39,1.43-2.39.72,0,2.15,3.46,2.74,8.95h46.55c5.25-10.62,8.12-20.65,8.47-28.05,3.1.6,20.29,5.73,20.29,9.43,0,1.79-1.91,2.74-4.54,2.74-.36,0-.72-.12-1.07-.12-5.37,6.33-11.58,11.82-17.31,15.99h14.68c3.22-3.82,5.49-5.85,6.56-5.85,1.79,0,15.87,8.59,15.87,13.61,0,2.39-2.63,3.46-6.09,3.46-.72,0-1.31,0-2.15-.12-4.54,2.87-11.22,6.09-15.99,8,1.31,1.43,2.15,2.74,2.15,3.82,0,2.15-2.51,3.1-5.97,3.1h-1.31c-5.25,2.03-10.74,4.18-16.35,5.97,1.43.48,2.39,1.31,2.39,2.39,0,1.31-1.67,2.51-3.82,2.86-.12,1.19-.24,3.1-.24,5.13h21.01c1.67-2.98,8.71-12.17,10.5-12.17.36,0,.6.12.95.36,3.58,2.39,14.08,10.26,14.08,13.96,0,.95-.48,2.27-2.15,2.27h-44.4ZM617.18,156.14c-.84-.96-1.19-1.55-1.19-1.79,0-.48.36-.72,1.07-.72,3.58,0,22.44,4.42,22.44,15.64,0,3.94-2.74,8.59-8.12,8.59-3.1,0-5.49-2.03-6.56-5.61-1.91-7.16-3.46-11.94-7.64-16.11ZM641.17,152.08c0-.24.48-.72.96-.72,2.51,0,20.77,5.85,20.77,16.83,0,3.94-2.86,8.83-8.24,8.83-3.58,0-5.85-2.74-6.56-6.56-1.79-9.91-2.74-12.53-5.97-16.71-.84-1.07-.96-1.31-.96-1.67Z" style="fill: #fff;"/>
    <path d="M786.54,218.92c0,3.7-7.16,3.94-7.52,3.94-2.86,0-4.54-.95-4.54-2.86v-.24c.12-1.19.24-2.39.24-3.34h-6.21l.12,2.15v3.58c0,3.34-6.09,4.42-8.47,4.42-2.75,0-4.42-1.31-4.42-3.58v-.24c.12-1.07.36-2.87.36-4.77-9.07,9.43-18.14,16.59-27.21,23.03.12.6.24,1.07.24,1.67,0,1.79-.6,3.22-2.15,3.22-2.98,0-9.79-11.1-12.29-17.66,6.21-.48,12.41-2.51,15.28-3.46v-36.64c-3.58,0-7.52.24-10.62.72-1.31-1.19-2.15-3.58-2.27-5.73,3.34.6,8.24.95,12.89,1.19v-12.29c0-3.58-.48-13.49-1.31-18.26,3.82,0,19.81.95,19.81,4.42,0,1.43-1.79,2.63-4.3,3.22-.24,2.51-.36,11.7-.36,22.2,1.31-2.86,4.18-8.24,5.37-8.24.72,0,4.42,4.3,6.33,7.52l-.12-.6c4.54,1.07,10.5,3.58,13.61,5.25h5.25c2.15-2.74,4.3-4.89,4.89-4.89.48,0,10.15,4.54,10.15,7.76,0,1.31-1.07,2.51-3.22,3.1-.12,1.19-.24,3.46-.24,5.61,0,0,0,6.56.48,16.59,0,1.19.24,1.67.24,3.1v.12ZM756.47,196.96c0-2.39-.12-5.73-.48-9.43-.48.48-1.07.6-1.67.6h-10.5c0,12.06.12,25.06.12,31.63,4.18-1.67,8.24-3.34,12.29-5.25.12-2.87.24-5.49.24-7.76v-9.79ZM757.66,246.73c0,2.51-.95,4.06-2.03,4.06-3.1,0-8.35-12.89-9.55-18.02h1.91c13.13,0,40.1-7.4,43.21-8.24.48-.12,1.67-.36,1.67-.36.36,0,1.07.12,1.07.84,0,1.31-19.57,14.44-36.28,21.36v.36ZM827.96,219.04c-.6,3.94-2.27,17.31-2.27,21.96,0,3.1.48,5.97,1.43,8.47.48,1.07.72,2.27.72,3.58,0,4.18-2.87,7.04-7.52,7.04-7.76,0-15.16-10.03-19.93-21.25-15.75,17.07-38.07,22.56-39.51,22.56-.84,0-1.31-.36-1.31-.96,0-.48.6-.84,1.07-1.19,17.07-7.76,28.05-19.81,35.57-32.23-4.77-16.23-6.09-35.09-6.92-51.56h-12.41c-5.37,0-18.62.12-24.23.72-.72-1.07-2.15-3.7-2.15-5.73,6.21.6,19.69,1.07,28.17,1.07h10.38v-1.07c0-13.84-1.31-16.71-1.91-19.81,1.55,0,12.89.6,17.19,2.75-.48-.36-.72-.72-.72-1.07,0-.24.24-.72,1.31-.72,15.16,0,15.87,6.56,15.87,8.59,0,1.31-.36,2.63-1.19,3.7,3.7,2.39,8.83,7.16,8.83,9.43,0,1.19-.84,2.15-2.63,2.15h-23.27c.24,13.73,1.19,24.95,2.63,34.14,3.1-8.95,5.37-18.14,5.61-22.8,4.18,1.07,16.23,5.37,16.23,8.47,0,1.55-1.43,2.63-3.82,2.63-.24,0-.48,0-.72-.12-3.82,10.74-7.76,20.41-13.01,28.76,1.31,3.46,5.01,12.89,7.64,12.89,1.79,0,8.35-20.41,8.47-20.89.36-1.31.96-1.67,1.43-1.67.36,0,.95.48.95,1.67v.48ZM774.85,191.35h-6.45l-.12,16.95c0,1.07.12,2.74.12,4.42h6.45v-21.36ZM810.41,171.54c.72-1.43,2.15-3.34,3.58-5.01-2.03-.24-3.58-1.79-4.3-3.7-.6-1.67-.95-3.34-1.55-4.89-.6-1.19-1.19-2.39-2.39-3.46.12.24.24.6.24.84,0,1.31-1.31,2.27-3.46,2.63v13.61h7.88Z" style="fill: #fff;"/>
    <path d="M923.33,256.87c0,4.42-9.43,4.66-9.91,4.66-3.7,0-5.61-1.31-5.61-3.94v-.48c.72-16.11.72-21.25.72-24.23v-5.13c-4.65,0-12.29.36-16.71.72-1.19-1.07-2.27-3.1-2.51-5.01-.48.24-1.07.48-1.67.6-.12,1.55-.12,3.46-.12,5.37,0,3.94.12,7.52.12,7.52,0,1.91.36,10.62.36,11.94,0,1.19.24,4.18.24,4.77,0,3.46-7.16,4.3-9.31,4.3-3.1,0-5.01-1.07-5.01-3.46v-.12c.12-.84.12-3.34.12-4.65v-.36h-10.5c0,1.43.12,2.75.12,3.1,0,.6.12,3.46.12,3.94,0,3.7-6.68,4.42-8.95,4.42-2.75,0-5.61-.84-5.61-3.34v-.36c.84-7.4.84-14.2.84-16.11l.12-11.1c-6.56,8.83-14.56,15.76-15.99,15.76-.36,0-.95-.12-.95-.84,0-.48.24-.95.95-1.79,8.47-11.34,13.37-24.71,16.23-39.63-2.86.12-5.97.24-8.35.48-1.31-1.07-2.27-3.7-2.39-5.73,2.63.36,7.4.6,11.58.84.72-5.25,1.31-10.5,1.67-15.99-4.89.12-9.43.36-14.8.96-1.19-.84-2.51-3.94-2.51-5.13v-.72c4.18.36,11.46.72,17.55.84.12-3.94.24-7.76.24-11.82v-4.06c-3.58,0-7.52.24-10.86.72-1.31-1.07-2.27-3.7-2.39-5.73,4.42.6,16.35,1.07,17.66,1.07h14.44c2.27-2.86,5.37-6.09,6.56-6.09.12,0,.48,0,.84.12.95.48,10.74,6.21,10.74,9.19,0,1.55-1.31,2.51-3.82,3.34-.12,1.91-.24,5.37-.24,9.19v3.7c2.03-6.68,2.98-8,4.18-8,.95,0,4.06,5.25,4.89,6.68,4.54.36,10.38.48,18.5.48h3.22c2.03-10.38,3.46-17.55,3.46-26.85,2.03.36,19.1,3.82,19.1,7.76,0,1.55-1.79,2.39-4.42,2.39h-.36c-3.58,5.97-8.12,11.82-12.89,16.71h5.25c1.31-2.27,5.97-9.31,7.52-9.31.24,0,.48,0,.72.24,3.34,1.79,10.98,8.12,10.98,10.86,0,1.19-.84,2.27-2.39,2.27h-21.13v18.26h2.15c1.07-1.91,5.97-9.55,7.4-9.55,1.79,0,11.58,8.35,11.58,11.22,0,1.19-.96,2.39-2.51,2.39h-18.62v19.57h4.65c1.43-2.51,6.92-10.38,8.24-10.38,1.55,0,12.53,8.95,12.53,12.05,0,1.19-.72,2.39-2.51,2.39h-22.92v4.54c0,3.34,0,10.62.12,15.28,0,1.55.12,6.92.24,9.07v.24ZM908.53,204.12c-4.18.12-9.43.36-13.49.84-1.31-1.19-2.51-3.58-2.51-5.01v-.72c4.54.48,9.07.6,15.99.72v-18.14c-3.58.12-8.24.24-12.17.6-.36.36-.95.6-1.55.6h-8.47c0,3.22.12,5.61.12,5.61,0,1.91.24,9.07.36,10.38,0,1.19.24,3.58.24,4.18v.12c0,3.34-5.13,4.3-9.07,4.3-3.22,0-5.01-1.07-5.01-3.34v-.24l.12-.72h-10.5c-.96,3.58-2.15,7.04-3.34,10.38-.24.24-.36.6-.48.95,2.15.84,4.18,1.91,5.85,2.86h8.47c2.63-3.22,5.25-5.85,6.09-5.85.12,0,12.29,4.65,12.29,9.07,0,.84-.48,1.55-1.19,2.15,4.77.48,10.5.84,18.26.84v-19.57ZM873.2,199.23c0-1.43.12-7.4.12-9.79v-6.45h-7.16c-.6,5.73-1.55,11.22-2.63,16.35h9.67v-.12ZM874.15,221.43h-10.62v23.99h10.5c0-2.74.12-5.97.12-7.16v-16.83ZM873.32,163.06h-6.09c-.12,5.61-.36,10.74-.84,15.87h6.92v-15.87ZM894.92,155.66c-.72-.84-.96-1.31-.96-1.55,0-.72.72-.84,1.07-.84.96,0,20.29,3.82,20.29,14.92,0,4.18-2.75,8.71-8,8.71-2.86,0-5.37-2.03-6.21-5.85-1.55-8.35-3.1-12.17-6.21-15.4Z" style="fill: #fff;"/>
    <path d="M1025.26,193.02c1.67,13.01,4.3,23.16,8.24,30.79,4.54,9.19,12.29,16.59,15.64,16.59,1.31,0,3.82-.36,12.41-22.92.6-1.55,1.31-2.15,1.79-2.15s1.07.6,1.07,1.79c0,.24,0,.72-.12,1.07-.48,2.63-2.74,17.31-2.74,21.84,0,3.46,1.19,7.28,2.51,9.43.84,1.19,1.19,2.63,1.19,4.18,0,1.31-.24,8-9.19,8-2.63,0-5.37-.6-8-1.79-25.42-11.94-33.78-40.1-37.12-65.53-3.34.24-15.16,1.43-20.89,2.39-1.19-.96-2.15-2.75-2.63-4.3-.6.36-1.31.6-2.15.72-.24,3.1-.36,8.35-.36,13.73,0,9.43.24,19.34.24,19.34,0,2.86,0,14.92.24,21.72,0,1.07.12,7.04.12,8.35,0,4.66-8.71,5.13-10.14,5.13-3.46,0-5.61-1.31-5.61-4.3,0-1.07.48-9.19.48-10.26.36-5.49.48-17.66.48-20.65v-24.59c-8.35,10.03-15.76,15.76-16.47,15.76-.48,0-.72-.48-.72-.84,0-.48.24-1.19.84-1.91,16.47-23.63,23.15-55.02,23.15-63.02,6.92,1.07,21.48,5.13,21.48,8.95,0,1.79-1.91,2.75-4.42,2.75h-1.19c-3.1,7.4-6.8,15.16-11.46,22.56,5.13.96,7.64,1.67,7.64,3.94,0,.36-.12.72-.36,1.07h.6c5.49,0,15.04-.48,20.65-.96-.6-5.01-1.07-10.03-1.43-14.68,0-1.79-1.19-16.35-2.51-21.84h1.55c2.63,0,18.5,0,19.45,3.7.12-.36.48-.6,1.19-.6,1.91,0,22.44,2.15,22.44,13.13,0,2.98-1.07,5.01-2.63,6.45.24-.12.36-.12.6-.12.36,0,14.92,7.4,14.92,11.34,0,1.19-.72,2.39-2.39,2.51l-36.4,3.22ZM1040.65,187.17c1.07-2.03,4.89-8,7.16-10.5-1.31.84-2.86,1.31-4.18,1.31-2.75,0-5.01-1.67-6.21-4.54-2.51-6.8-4.65-11.7-8.83-14.8-.6-.36-.84-.6-.95-.84,0,1.31-1.43,2.51-4.06,2.98,0,10.5.48,19.81,1.31,27.93l15.76-1.55Z" style="fill: #fff;"/>
    <path d="M1136.85,204.48c3.34,8.12,7.52,14.92,12.53,20.65,9.31-10.03,11.82-16.95,12.53-19.34,2.03.72,17.78,8.83,17.78,13.13,0,1.31-1.19,2.15-3.1,2.15-.84,0-1.91-.12-3.22-.6-5.85,3.1-13.49,6.21-20.29,8.59,8.95,8.47,20.41,14.32,34.14,18.62.48.12,1.07.48,1.07,1.07,0,.72-.72,1.31-1.43,1.43-6.45,2.03-14.32,5.13-17.19,8.59-.48.48-1.19.72-1.91.72s-1.43-.24-2.03-.48c-8.83-4.77-15.87-11.58-21.25-20.53-3.46,3.46-28.41,14.68-47.15,20.41v.48c0,2.27-.72,4.3-2.39,4.3-3.46,0-9.31-14.68-10.62-20.41,2.27,0,3.7.12,5.13.12,5.37,0,12.05-.72,16.83-1.19v-14.2c-16.47,8.59-33.66,12.17-33.66,12.17-.84,0-1.19-.36-1.19-.84,0-.24.6-1.19,1.79-1.79,17.9-8.59,31.39-19.69,42.13-33.06h-6.33c-3.94,0-26.85.48-30.67.95-1.43-1.19-2.63-4.18-2.75-6.33,4.54.72,29.24,1.31,34.85,1.31h11.46v-13.01h-5.01c-3.94,0-22.8.36-26.62.84-1.19-1.19-2.63-4.06-2.74-6.21,4.54.72,25.06,1.31,30.67,1.31h3.7v-11.82h-7.16c-3.94,0-26.62.36-30.44.84-1.43-1.19-2.63-4.18-2.74-6.33,4.65.84,28.88,1.43,34.49,1.43h5.85v-1.55c0-2.15-.12-9.31-1.19-14.68h1.67c.72,0,19.81.36,19.81,4.77,0,1.43-1.67,2.51-4.54,3.1-.12,1.79-.24,4.77-.24,8.35h17.43c1.19-1.79,5.85-8,8.95-10.62.36-.24.72-.36,1.07-.36,1.67,0,14.44,9.43,14.44,12.89,0,1.43-1.19,2.15-2.51,2.15h-39.39v11.82h10.98c1.67-2.51,8.12-10.26,9.43-10.26,1.19,0,14.2,8,14.2,12.17,0,1.43-1.31,2.15-2.63,2.15h-31.99v13.01h23.75c2.27-3.46,8.35-11.1,10.03-11.1,1.91,0,14.56,9.43,14.56,13.01,0,1.43-1.31,2.15-2.63,2.15h-46.31ZM1143.66,236.94c-4.65-8.35-7.88-18.38-9.79-30.32-4.06,4.65-8.47,8.59-13.01,12.05v21.84c7.52-.84,15.28-2.15,21.36-3.46.6-.12.95-.12,1.31-.12h.12Z" style="fill: #fff;"/>
    <path d="M1284.98,257.83c0,4.18-7.64,4.77-10.15,4.77-4.06,0-6.21-1.07-6.21-3.46v-.24c0-.48.12-2.51.12-3.94h-31.99v3.58c0,4.3-9.07,4.65-10.26,4.65-3.22,0-5.73-1.19-5.73-3.94v-.48c.12-1.07.6-6.45.96-21.48l.36-16.47v-3.22c-12.65,4.54-27.57,8.71-29.24,8.71-.6,0-1.43-.24-1.43-.95s.6-1.19,1.55-1.55c10.03-3.94,19.34-8,29-13.13-.12-2.15-.36-4.18-.72-6.68,2.98.72,5.61,1.67,8.12,2.63,3.94-2.27,12.53-7.76,17.43-11.46h-23.87c-5.97,0-21.25.24-26.97.72-1.31-1.31-2.27-3.82-2.39-6.45,6.8.96,23.99,1.43,32.94,1.43h9.31v-17.07h-6.68c-4.54,0-15.28.24-20.89.72-1.19-1.31-2.27-3.34-2.27-5.25v-.84c6.56.95,19.57,1.19,26.38,1.19h3.46v-2.39c0-4.89-.36-11.58-1.19-16.47,4.42,0,15.52.72,18.74,1.55,1.79.48,3.1,1.43,3.1,2.75,0,1.55-1.67,2.74-4.54,3.34-.12,2.03-.24,6.33-.24,11.22h.6c1.91-3.7,6.56-10.15,7.88-10.15,1.43,0,7.04,5.25,11.1,10.38,4.18-5.61,7.04-10.26,8.71-15.04.84.48,5.13,2.39,9.43,4.89,4.06,2.27,8.59,5.37,8.59,7.64,0,1.43-1.31,2.39-3.22,2.39-.84,0-1.67-.12-2.74-.48-6.8,8.24-14.56,15.99-21.72,21.6h10.38c1.79-2.63,8.35-11.46,10.03-11.46,1.79,0,14.56,9.91,14.56,13.13,0,1.43-.84,2.63-2.51,2.63h-37.6c-8,5.97-16.83,10.98-25.9,15.28h28.41c1.79-2.39,4.06-4.89,5.85-6.45.36-.24.72-.36,1.19-.36,1.43,0,14.08,6.45,14.08,10.5,0,1.55-1.43,2.98-4.3,3.82-.12,1.79-.24,4.65-.24,7.64,0,6.56.24,14.08.24,14.08.24,11.46.48,17.9.48,17.9v.24ZM1268.86,234.32h-31.87v3.82c0,2.39-.24,8.95-.24,12.65h31.99c0-2.98.12-7.76.12-9.91v-6.56ZM1268.86,214.74h-31.51l-.36,15.28h31.87v-15.28ZM1251.8,190.87c5.61-5.25,11.34-10.86,16.47-17.07h-16.59c0,6.92.12,14.08.12,16.95v.12Z" style="fill: #fff;"/>
    <path d="M1364.47,199.58c-4.42,0-14.56.36-19.1.84-1.43-1.19-2.51-3.58-2.51-5.97-15.75,11.58-29.6,16.23-30.91,16.23-.36,0-1.07-.12-1.07-.84,0-.6.72-1.31,1.79-1.91,22.68-14.8,41.3-42.01,44.88-57.41,6.21.96,21.96,4.89,21.96,8.47,0,1.31-1.43,2.27-3.7,2.51,11.94,13.13,29.24,23.75,50.49,29.24.6.12,1.07.48,1.07,1.19,0,.36-.48.95-.95,1.31-5.73,2.51-12.77,6.56-15.52,10.03-.6.84-1.55.95-2.15.95-2.15,0-22.92-11.22-36.28-41.3-8.59,13.73-19.34,23.99-29.48,31.51,4.89.6,15.99,1.07,21.48,1.07h6.33c2.15-3.46,7.52-10.62,8.95-10.62,2.74,0,13.84,9.79,13.84,12.41,0,1.19-.95,2.27-2.51,2.27h-26.62ZM1372.11,218.8c-5.61,8.24-12.77,16.71-18.98,22.8,12.53-.48,26.38-1.31,37.84-2.27-2.51-4.18-5.97-8.59-10.86-12.41-.84-.6-1.43-1.31-1.43-1.79,0-.72.48-.84,1.07-.84s34.73,8,34.73,25.18c0,8-5.49,10.62-8.95,10.62s-6.21-2.27-7.88-6.09c-1.19-2.74-2.39-6.33-4.18-10.14-18.26,5.49-42.25,10.5-61.11,13.49,0,2.74-.96,4.54-2.51,4.54-3.22,0-7.4-14.08-8.59-20.41,2.51.36,5.61.48,7.4.48,2.15,0,4.42.12,6.92.12,3.34,0,7.04-.12,10.86-.24,2.03-7.16,3.7-15.87,4.54-23.04h-.36c-6.21,0-22.2.36-27.69.96-1.67-1.19-2.39-4.06-2.51-6.33,5.13.48,23.04,1.07,33.3,1.07h38.43c1.43-2.15,8.35-11.22,9.91-11.22s15.16,9.55,15.16,13.13c0,1.31-.95,2.39-2.51,2.39h-42.61Z" style="fill: #fff;"/>
    <path d="M1449.45,178.94c-4.18,0-11.94.24-15.87.72-1.55-1.31-2.15-3.34-2.27-5.73,4.54.72,14.56,1.19,20.41,1.19h3.7c3.46-4.89,7.16-9.79,8.35-9.79,1.55,0,12.29,8.12,12.29,11.58,0,1.55-1.31,2.03-2.63,2.03h-23.99ZM1470.22,253.41c0,3.46-5.85,4.65-8.35,4.65-2.98,0-4.77-.95-4.77-3.34v-.36c0-.36.24-2.39.24-3.82h-6.8v5.85c0,2.63-2.63,4.54-8.71,4.54-2.74,0-5.25-.84-5.25-3.58v-.36s.72-6.92.72-15.52v-11.82c0-4.65-.36-9.31-1.19-15.16,4.65,1.43,11.46,4.54,15.16,6.56h5.13c.72-1.07,4.06-5.73,5.61-5.73s11.7,6.21,11.7,9.31c0,1.31-1.19,2.63-3.82,3.46-.12,1.55-.24,3.82-.24,6.09,0,3.1.12,5.97.12,5.97,0,1.31.24,7.28.24,8.47,0,1.31.24,4.3.24,4.66v.12ZM1450.05,193.86c-4.18,0-7.16.24-11.22.72-1.55-1.07-2.27-3.58-2.39-5.73,4.42.6,8.95,1.19,14.8,1.19h1.07c.72-1.19,4.18-6.45,6.92-8.71.36-.24.6-.36.95-.36,2.03,0,11.7,8.12,11.7,10.98,0,1.43-1.19,1.91-2.51,1.91h-19.34ZM1450.05,162.82c-4.18,0-7.16.12-11.22.72-1.43-1.31-2.15-3.58-2.27-5.73,4.42.72,9.67,1.19,14.44,1.19h1.19c.72-1.19,4.18-6.45,6.92-8.71.36-.24.6-.36.95-.36.48,0,.6.12.84.12,3.58,2.03,11.1,8.59,11.1,10.98,0,1.31-1.31,1.79-2.51,1.79h-19.45ZM1450.05,208.89c-4.18,0-7.16.12-11.22.72-1.55-1.19-2.15-3.7-2.27-5.73,4.42.72,8.95,1.19,14.8,1.19h.84c3.94-5.49,5.49-7.64,6.92-8.83.36-.24.6-.36.95-.36,1.79,0,11.7,7.4,11.7,10.98,0,1.43-1.19,2.03-2.51,2.03h-19.22ZM1457.45,225.01h-7.04v21.72h6.92c0-1.91.12-4.42.12-5.61v-16.11ZM1543.14,246.73c0,1.55.24,2.86,1.67,5.25.72,1.07.96,2.15.96,3.34,0,3.34-2.63,6.68-7.4,6.68-5.61,0-13.25-4.18-19.22-11.1-13.13,9.91-25.54,11.34-25.9,11.34-.6,0-1.07-.12-1.07-.84,0-.36.36-.84,1.31-1.43,10.15-5.13,15.64-10.38,20.77-16.83-1.91-3.82-3.34-7.88-4.3-12.41-2.98,1.67-6.92,3.46-10.86,5.25v1.67c0,2.39.24,7.4.36,10.38v.72c0,9.19-10.5,12.29-13.49,12.29-1.31,0-2.27-.6-2.74-1.67-.48-1.67-2.03-5.01-9.19-7.76-1.07-.36-1.43-.95-1.43-1.31,0-.6.48-.96,1.55-.96h.48c2.15.24,4.54.48,6.56.48,5.01,0,6.21-2.51,6.21-5.13v-4.65c-2.39.84-4.89,1.67-7.28,2.27v.48c0,1.79-.6,3.22-1.91,3.22-2.51,0-6.45-10.74-7.16-15.28,1.43.24,2.39.36,4.42.36h2.39c3.1,0,6.21-.24,9.55-.48l-.12-8.83c-4.42,0-8.12.24-13.49.84-1.31-1.19-2.27-3.7-2.39-5.85,5.01.72,10.38,1.07,15.87,1.19v-7.04c-4.3.48-8.47.84-12.77,1.07h-.36c-1.43,0-2.03-.6-2.03-1.07,0-.72.72-1.19,1.67-1.43,7.76-2.27,18.86-7.28,23.75-12.53,3.34,2.03,8.47,7.04,9.67,9.55v-1.07c-.12-2.27-.48-4.42-.95-6.8,12.17.72,16.71,2.03,16.71,4.18,0,1.19-1.31,2.03-3.1,2.63,0,2.27-.12,4.54-.12,6.68,0,2.03.12,3.94.12,5.85h6.92c2.15-3.34,4.18-5.61,5.49-6.8-.6.36-1.31.48-1.91.48-1.67,0-3.22-.95-4.18-2.98-1.91-4.89-2.98-7.16-5.73-9.19-.48-.48-.72-.95-.72-1.07,0-.6.6-.95,1.19-.95,0,0,14.8,1.43,14.8,8.59,0,1.67-.84,3.1-1.91,4.06h.12c1.43,0,10.38,7.16,10.38,9.55,0,1.07-.72,2.15-2.39,2.15h-21.96c.36,4.65,1.07,8.71,2.27,12.17,2.74-4.89,3.34-6.92,4.42-11.46,12.06,4.42,13.96,6.92,13.96,8.47,0,1.31-1.55,2.03-3.34,2.03-.36,0-.72,0-1.07-.12-2.63,3.82-5.37,7.16-8.35,10.26,2.63,2.63,4.77,4.65,6.68,4.65.84,0,2.39-.36,8-13.96.48-1.31,1.19-1.79,1.55-1.79.72,0,.96.84.96,1.43,0,.12,0,.36-.12.84-1.79,10.5-1.79,11.82-1.79,12.41ZM1492.78,196.72c-5.85,0-11.82.12-18.26.84-1.31-1.19-2.03-3.58-2.15-5.73,6.33.96,15.64,1.19,23.39,1.19h2.63v-9.55h-2.27c-5.85,0-10.26.12-16.71.84-1.31-1.19-2.15-3.58-2.27-5.73,6.68.95,12.65,1.19,20.41,1.19h.84v-9.31h-5.37c-4.18,0-11.1.12-17.55.84-1.31-1.19-2.15-3.46-2.27-5.61,5.13.84,11.22,1.07,17.19,1.07-.48-.72-.84-1.43-1.07-2.39-.36-1.31-.6-3.1-1.31-4.89-.72-1.91-1.91-3.94-3.82-6.09-.6-.72-.84-1.19-.84-1.31,0-.48.36-.72,1.19-.72,8,0,18.14,3.46,18.14,10.38,0,1.91-.84,3.7-2.15,5.01h7.28c2.15-7.76,2.15-10.38,2.15-16.35,1.19.24,5.73.95,10.03,1.91,4.42,1.07,8.71,2.75,8.71,4.42,0,1.55-1.67,2.39-4.06,2.39h-.48c-2.98,2.63-6.92,5.37-10.5,7.64h8.83c3.1-4.42,6.09-8.35,7.64-8.35,2.27,0,11.7,7.4,11.7,10.03,0,.95-.72,2.03-2.27,2.03h-27.09v9.31h5.61c2.03-2.86,6.21-8.35,7.4-8.35,1.55,0,11.34,7.52,11.34,10.15,0,.95-.72,1.91-2.27,1.91h-22.08v9.55h10.86c1.31-2.03,4.54-6.56,6.8-8.71.48-.36.84-.36,1.19-.36,1.67,0,12.29,7.64,12.29,10.5,0,1.07-.6,2.27-2.51,2.27h-48.34ZM1508.17,217.96c-.24-2.03-.36-4.06-.48-6.21,0-.84-.24-2.27-.36-3.82-.24.84-.95,1.31-2.15,1.31-.84,0-1.79-.24-2.87-.72-1.07.24-2.15.48-3.22.6v8.83h9.07ZM1499.1,221.78v7.76c3.46-.36,6.8-.95,10.38-1.31-.36-2.15-.72-4.18-.95-6.45h-9.43Z" style="fill: #fff;"/>
  </g>
  <g id="text_C_up">
    <path d="M393.38,111.74c-6.21,0-24.11.12-29.72.72-1.55-1.19-2.63-4.06-2.63-6.56,5.13.72,25.06,1.43,35.33,1.43h8.95v-24.47h-4.66c-6.21,0-18.98.12-24.59.72-1.55-1.19-2.51-3.82-2.51-6.21,5.13.48,20.05,1.07,30.32,1.07h1.43v-20.53h-.84c-5.97,0-12.29.12-17.78.72-.84-.72-1.55-1.79-1.91-2.98-13.84,9.91-26.26,14.2-27.69,14.2-.36,0-1.07-.12-1.07-.84,0-.48.6-1.19,1.91-1.91,22.56-13.85,42.37-46.43,45.24-59.92,6.45,1.07,21.48,5.13,21.48,8.71,0,1.31-1.07,2.27-3.1,2.51,12.29,13.73,28.76,24.71,49.77,30.91.48.12,1.07.48,1.07,1.07s-.6,1.19-1.07,1.43c-6.21,2.74-12.41,5.85-15.28,9.67-.48.72-1.19.96-1.91.96-2.86,0-24.23-13.85-36.28-42.73-7.16,12.65-17.55,24.11-29.48,33.3,5.25.36,13.37.72,18.38.72h12.41c2.74-4.3,6.92-10.14,8.24-10.14,2.39,0,13.25,9.79,13.25,12.29,0,1.19-.95,2.03-2.39,2.03h-17.07v20.53h11.46c2.27-3.46,7.64-10.86,9.55-10.86,1.31,0,14.08,9.91,14.08,13.13,0,1.31-1.19,2.15-2.63,2.15h-32.46l.12,24.47h22.08c1.91-2.98,6.21-8.95,9.07-11.82.36-.36.84-.36,1.31-.36,2.15,0,14.92,11.22,14.92,14.44,0,1.31-1.19,2.15-2.63,2.15h-72.69Z" style="fill: #fff;"/>
    <path d="M541.51,82.38c0,5.37.12,10.38.12,10.38,0,2.63.36,8.12.36,9.67v.24c0,15.52-18.02,17.07-20.53,17.07-1.79,0-2.74-.6-3.46-2.03-2.27-5.01-7.88-7.52-15.99-10.86-1.43-.6-2.15-1.31-2.15-1.91,0-.48.48-1.07,2.15-1.07.24,0,.6.12,1.07.12,12.77,1.07,15.52,1.07,15.99,1.07,4.3,0,6.92-2.51,6.92-6.33l.12-16.35h-15.75s-20.89.12-27.21.84c-1.67-1.31-2.15-3.82-2.51-6.21,5.49.48,21.48.95,32.58.95h12.89c0-3.7-.24-9.55-1.19-12.89,3.7.12,7.4.6,10.74,1.07,2.86-3.1,5.97-6.92,8.24-9.91h-13.37c-3.94,0-21.25.36-27.21.96-1.55-1.43-2.27-3.7-2.63-6.21,8,.6,25.78,1.19,29.96,1.19h14.08c1.67-1.91,5.61-5.73,7.04-5.73.6,0,2.98.36,9.79,5.73,1.79-3.82,3.58-8.24,5.01-12.41h-67.08v1.19c0,13.25-6.45,19.1-13.25,19.1-5.49,0-7.88-4.18-7.88-7.88,0-4.18,2.98-7.04,5.37-8.35,6.21-3.7,9.67-7.52,11.46-14.8.48-1.79,1.19-2.39,1.43-2.39.72,0,2.15,3.46,2.75,8.95h46.55c5.25-10.62,8.12-20.65,8.47-28.05,3.1.6,20.29,5.73,20.29,9.43,0,1.79-1.91,2.74-4.54,2.74-.36,0-.72-.12-1.07-.12-5.37,6.33-11.58,11.82-17.31,15.99h14.68c3.22-3.82,5.49-5.85,6.56-5.85,1.79,0,15.87,8.59,15.87,13.61,0,2.39-2.63,3.46-6.09,3.46-.72,0-1.31,0-2.15-.12-4.54,2.87-11.22,6.09-15.99,8,1.31,1.43,2.15,2.74,2.15,3.82,0,2.15-2.51,3.1-5.97,3.1h-1.31c-5.25,2.03-10.74,4.18-16.35,5.97,1.43.48,2.39,1.31,2.39,2.39,0,1.31-1.67,2.51-3.82,2.86-.12,1.19-.24,3.1-.24,5.13h21.01c1.67-2.98,8.71-12.17,10.5-12.17.36,0,.6.12.95.36,3.58,2.39,14.08,10.26,14.08,13.96,0,.95-.48,2.27-2.15,2.27h-44.4ZM497.82,12.91c-.84-.96-1.19-1.55-1.19-1.79,0-.48.36-.72,1.07-.72,3.58,0,22.44,4.42,22.44,15.64,0,3.94-2.74,8.59-8.12,8.59-3.1,0-5.49-2.03-6.56-5.61-1.91-7.16-3.46-11.94-7.64-16.11ZM521.81,8.85c0-.24.48-.72.96-.72,2.51,0,20.77,5.85,20.77,16.83,0,3.94-2.86,8.83-8.24,8.83-3.58,0-5.85-2.74-6.56-6.56-1.79-9.91-2.75-12.53-5.97-16.71-.84-1.07-.96-1.31-.96-1.67Z" style="fill: #fff;"/>
    <path d="M660.86,82.38c0,5.37.12,10.38.12,10.38,0,2.63.36,8.12.36,9.67v.24c0,15.52-18.02,17.07-20.53,17.07-1.79,0-2.75-.6-3.46-2.03-2.27-5.01-7.88-7.52-15.99-10.86-1.43-.6-2.15-1.31-2.15-1.91,0-.48.48-1.07,2.15-1.07.24,0,.6.12,1.07.12,12.77,1.07,15.52,1.07,15.99,1.07,4.3,0,6.92-2.51,6.92-6.33l.12-16.35h-15.75s-20.89.12-27.21.84c-1.67-1.31-2.15-3.82-2.51-6.21,5.49.48,21.48.95,32.58.95h12.89c0-3.7-.24-9.55-1.19-12.89,3.7.12,7.4.6,10.74,1.07,2.86-3.1,5.97-6.92,8.24-9.91h-13.37c-3.94,0-21.25.36-27.21.96-1.55-1.43-2.27-3.7-2.63-6.21,8,.6,25.78,1.19,29.96,1.19h14.08c1.67-1.91,5.61-5.73,7.04-5.73.6,0,2.98.36,9.79,5.73,1.79-3.82,3.58-8.24,5.01-12.41h-67.08v1.19c0,13.25-6.45,19.1-13.25,19.1-5.49,0-7.88-4.18-7.88-7.88,0-4.18,2.98-7.04,5.37-8.35,6.21-3.7,9.67-7.52,11.46-14.8.48-1.79,1.19-2.39,1.43-2.39.72,0,2.15,3.46,2.74,8.95h46.55c5.25-10.62,8.12-20.65,8.47-28.05,3.1.6,20.29,5.73,20.29,9.43,0,1.79-1.91,2.74-4.54,2.74-.36,0-.72-.12-1.07-.12-5.37,6.33-11.58,11.82-17.31,15.99h14.68c3.22-3.82,5.49-5.85,6.56-5.85,1.79,0,15.87,8.59,15.87,13.61,0,2.39-2.63,3.46-6.09,3.46-.72,0-1.31,0-2.15-.12-4.54,2.87-11.22,6.09-15.99,8,1.31,1.43,2.15,2.74,2.15,3.82,0,2.15-2.51,3.1-5.97,3.1h-1.31c-5.25,2.03-10.74,4.18-16.35,5.97,1.43.48,2.39,1.31,2.39,2.39,0,1.31-1.67,2.51-3.82,2.86-.12,1.19-.24,3.1-.24,5.13h21.01c1.67-2.98,8.71-12.17,10.5-12.17.36,0,.6.12.95.36,3.58,2.39,14.08,10.26,14.08,13.96,0,.95-.48,2.27-2.15,2.27h-44.4ZM617.18,12.91c-.84-.96-1.19-1.55-1.19-1.79,0-.48.36-.72,1.07-.72,3.58,0,22.44,4.42,22.44,15.64,0,3.94-2.74,8.59-8.12,8.59-3.1,0-5.49-2.03-6.56-5.61-1.91-7.16-3.46-11.94-7.64-16.11ZM641.17,8.85c0-.24.48-.72.96-.72,2.51,0,20.77,5.85,20.77,16.83,0,3.94-2.86,8.83-8.24,8.83-3.58,0-5.85-2.74-6.56-6.56-1.79-9.91-2.74-12.53-5.97-16.71-.84-1.07-.96-1.31-.96-1.67Z" style="fill: #fff;"/>
    <path d="M751.1,80.47c-.48,4.18-.72,5.73-.84,6.45,15.99,3.1,18.74,9.07,18.74,13.61,0,4.06-2.63,7.88-6.92,7.88-2.51,0-4.77-1.67-5.73-4.42-2.74-7.64-3.58-9.55-7.04-13.25-7.04,21.36-33.18,26.02-33.18,26.02-.84,0-.96-.36-.96-.6s.6-1.07,1.79-1.67c13.49-8.12,19.1-19.1,20.29-32.35,0-.48.12-1.07.12-1.67h-.12c-5.37,0-13.61.36-17.78.84-1.31-1.67-2.03-3.58-2.15-5.97,4.65.72,8.12,1.07,20.17,1.07v-5.61c0-2.98-.36-5.61-.95-8.35,5.13,0,13.13.84,15.75,1.31,2.03.36,3.22,1.43,3.22,2.75,0,1.55-1.67,2.98-3.94,3.34,0,1.55-.12,4.06-.24,6.56h2.39c1.43-2.51,6.21-9.43,7.52-9.43.48,0,.84.12.95.36,4.54,2.86,10.5,8.59,10.5,10.86,0,1.43-1.07,2.27-2.51,2.27h-19.1ZM750.98,37.14v4.18c17.55,2.51,18.86,9.91,18.86,12.65s-2.39,6.68-5.97,6.68c-2.39,0-4.54-1.91-5.61-3.94-3.34-7.76-5.37-10.14-7.28-11.7,0,2.86.24,6.8.24,7.88.12,1.55.12,3.7.12,4.65,0,3.58-6.33,4.06-8.59,4.06-2.86,0-4.3-1.19-4.3-3.34,0-.24.48-7.28.48-7.4l.12-1.67c-9.31,11.82-21.6,16.95-22.44,16.95-.36,0-.72-.36-.72-.72,0-.48.24-.84.6-1.19,7.52-7.04,14.2-17.78,17.78-27.09-4.65,0-11.22.36-14.8.72-1.19-1.31-1.91-3.34-2.27-5.49,5.97.72,16.11,1.07,21.01,1.07h.72v-11.82c0-3.22-.36-9.07-1.19-13.49h1.19c3.46,0,10.74.84,12.89,1.31,1.79.36,3.1,1.43,3.1,2.63,0,1.31-1.31,2.39-3.46,2.86-.36,2.98-.48,11.58-.48,18.5h5.73c1.43-2.51,5.85-8.12,6.8-8.12,1.55,0,9.67,7.4,9.67,9.79,0,1.31-1.19,2.03-2.39,2.03h-19.81ZM726.87,27.47c-.48-2.03-.72-4.18-1.31-6.21-.6-2.03-1.55-4.06-3.58-5.85-.36-.36-.72-.84-.72-1.31,0-.6.72-.84,1.19-.84.36,0,15.4,2.63,15.4,11.82,0,4.77-3.94,6.92-6.21,6.92-2.03,0-3.94-1.55-4.77-4.54ZM751.81,32.6s-.6,0-.6-.6c0-.48.36-.95.48-1.43,2.39-5.01,4.3-13.01,5.25-19.57,4.42,1.07,13.49,4.65,13.49,7.4,0,1.19-1.43,1.79-2.86,1.79-.36,0-.72,0-1.19-.12-3.22,3.7-13.13,12.53-14.56,12.53ZM820.92,88.7c0,3.22-5.73,4.3-8.83,4.3-3.46,0-5.97-1.07-5.97-3.46h-17.55c-.12.96-.72,1.79-1.67,2.39,4.77,2.27,13.73,7.88,13.73,10.74,0,1.43-1.19,2.15-2.86,2.15-.72,0-1.67-.12-2.75-.48-18.62,12.29-39.63,14.8-41.06,14.8-.95,0-1.43-.48-1.43-.72,0-.36.6-.95,1.91-1.55,11.94-4.77,26.26-16.59,30.2-24.11-1.43.48-3.34.72-4.89.72-2.63,0-5.61-.84-5.61-3.7v-.24c.24-3.1.72-15.75.72-21.96v-21.36c0-4.65-.36-13.13-1.07-18.38,4.54,1.19,10.5,3.7,13.96,5.49h.12c.84-4.65,1.43-9.91,1.55-13.96-5.85.12-13.49.36-17.07.84-1.07-1.67-2.15-3.46-2.27-5.85,3.94.6,17.78.96,24.71.96h12.41c1.31-2.03,5.49-7.04,7.88-9.07.36-.24.6-.36.96-.36s.6,0,.72.24c4.42,2.15,12.53,8.47,12.53,10.98,0,1.19-.6,2.27-2.39,2.27h-20.77c-3.46,5.01-8,10.03-12.29,13.96h11.58c.84-1.19,5.01-6.21,5.97-6.21.72,0,12.77,5.61,12.77,9.55,0,1.43-1.19,2.39-3.7,3.1-.12,2.98-.24,8.35-.24,13.61,0,7.28.12,14.32.12,14.32.12,12.41.6,20.29.6,20.89v.12ZM806.36,37.26h-17.78c0,2.63-.12,7.28-.12,12.53h17.9v-12.53ZM806.36,53.85h-17.9v13.25h17.9v-13.25ZM788.45,71.04c0,3.46.12,10.26.12,11.82v2.74h17.55c0-.84.12-1.67.12-2.63,0-2.27.12-7.4.12-11.94h-17.9ZM814.35,113.65c-.6-1.31-1.31-2.86-2.15-4.3-.24-.6-3.82-8.35-12.65-13.73-1.19-.72-1.55-1.19-1.55-1.55,0-.24.36-.72,1.19-.72.6,0,29,2.39,29,15.87,0,5.01-3.46,8.59-7.4,8.59-2.63,0-5.01-1.43-6.45-4.18Z" style="fill: #fff;"/>
    <path d="M879.16,63.4c0-6.68,5.37-12.06,12.06-12.06s12.05,5.37,12.05,12.06-5.37,12.05-12.05,12.05-12.06-5.37-12.06-12.05Z" style="fill: #fff;"/>
    <path d="M1038.5,84.28v4.06c0,3.22.24,10.5.36,13.49v.84c0,13.37-12.65,16.71-19.93,16.71-1.79,0-2.87-.6-3.58-2.15-1.91-4.77-7.4-7.52-13.13-9.91-.48.12-1.07.24-1.55.24-3.22,0-6.09-2.03-9.43-8.12-4.06-5.85-6.09-7.88-10.98-10.38-.95-.6-1.31-1.07-1.31-1.43,0-.48.72-.96,2.15-.96h1.07c15.04,0,26.02,3.58,26.02,12.53,0,2.03-.6,4.06-2.03,5.61,2.75.24,7.88.84,9.79.84,4.89,0,7.64-2.39,7.64-6.21v-15.16h-34.14c-5.73,0-26.62.48-30.55.96-1.55-1.19-2.86-4.3-2.98-6.45,4.42.6,28.17,1.31,36.28,1.31h31.39v-10.74h-36.52v1.55c0,2.98-5.49,4.42-9.79,4.42-3.46,0-5.85-1.19-5.85-3.82v-.36c.12-.48.6-5.37.6-16.35v-10.98c0-3.58-.36-10.98-1.19-14.92,5.61,1.19,12.89,4.18,16.71,6.21h15.99v-9.67h-13.37c-4.06,0-23.04.36-29.6.95-1.55-1.31-2.86-3.7-2.86-5.49v-.84c5.49.72,23.27,1.19,34.61,1.19h11.22c0-3.94-.36-8.71-1.19-13.49,16.47.48,20.65,1.91,20.65,4.42,0,1.55-1.67,2.86-4.54,3.34-.12,1.07-.12,3.1-.12,5.73h23.51c.6-.84,1.67-2.63,3.1-4.65,2.63-3.58,4.89-6.21,5.85-6.21,2.75,0,14.68,9.91,14.68,12.77,0,1.19-.84,2.27-2.51,2.27h-44.64c0,2.98-.12,6.21-.12,9.67h16.95c2.86-3.46,5.01-5.97,6.33-5.97.6,0,13.85,5.37,13.85,9.79,0,1.55-1.43,2.63-4.06,3.34-.36,2.74-.36,6.21-.36,8.24v1.79c0,1.79.36,7.28.36,9.31,0,1.31.24,3.82.24,4.42v.12c0,1.07-.6,4.54-9.79,4.54-1.31,0-2.39-.12-3.22-.36v9.79h6.09c1.91-2.98,7.4-10.86,9.07-10.86,2.86,0,13.73,10.15,13.73,12.77,0,1.55-1.31,2.27-2.63,2.27h-26.26ZM1003.53,39.17h-16.71c-.12,2.86-.12,7.04-.12,10.5h16.83v-10.5ZM1003.53,53.61h-16.83l.12,2.03c.12,1.79.12,7.28.12,9.79h16.59v-11.82ZM1036.36,39.17h-18.14v10.5h18.14v-10.5ZM1018.21,53.61v11.82h17.9c0-1.07.12-2.51.12-3.22,0-1.79.12-6.21.12-8.59h-18.14Z" style="fill: #fff;"/>
    <path d="M1096.39,114.96c0,3.46-6.21,4.65-9.55,4.65-3.58,0-6.56-.95-6.56-3.7v-.36c.12-1.43.96-28.17.96-31.39V29.02c0-5.25-.6-15.87-1.43-21.6,6.56,1.55,13.61,4.65,17.07,6.68h13.49c2.39-2.63,5.61-5.85,6.56-5.85,2.03,0,11.7,5.61,11.7,8.71,0,1.55-1.43,2.86-3.82,3.46-.24,1.91-.24,4.89-.24,7.88,0,4.89.12,9.67.12,9.67,0,2.98.24,9.31.36,11.58.12,1.55.36,4.89.36,5.49v.12c0,3.58-7.76,4.3-9.31,4.3-3.1,0-5.37-1.07-5.37-3.58v-.12c0-.48.12-2.27.12-3.82h-15.04c0,15.64.24,30.91.24,34.85,0,5.73.36,22.32.36,28.05v.12ZM1111.07,18.04h-15.16c0,2.86-.12,7.04-.12,12.17h15.28v-12.17ZM1111.07,34.28h-15.28v13.61h15.16c0-2.63.12-6.45.12-8.71v-4.89ZM1179.94,100.76c0,12.65-13.61,17.55-20.41,17.55-1.55,0-2.74-.6-3.22-1.91-1.79-5.37-7.4-8.47-15.16-11.34-1.07-.48-1.91-1.07-1.91-1.79,0-.36.48-.95,1.67-.95h.6c4.06.48,10.74.95,14.8.95,5.37,0,8.12-2.63,8.12-7.16.12-13.73.12-15.75.12-44.16h-15.4v2.27c0,3.1-5.01,4.65-9.19,4.65-3.1,0-5.73-1.07-5.73-3.58v-.48c.72-8.35.6-11.22.72-17.78l.12-13.01c0-4.18-.36-11.7-1.07-15.99,5.25,1.19,11.82,3.94,15.64,6.09h13.85c4.54-5.73,5.61-6.56,6.92-6.56,2.63,0,13.13,6.8,13.13,9.91,0,1.55-1.43,2.86-3.94,3.58-.24,3.7-.24,10.26-.24,18.02,0,15.99.24,36.28.24,42.97,0,4.65.12,13.01.36,18.02v.72ZM1164.55,18.04h-15.52c0,3.1-.12,8-.12,12.17h15.64v-12.17ZM1164.55,34.28h-15.52v4.65c0,2.39.12,6.45.12,9.07h15.4v-13.73Z" style="fill: #fff;"/>
    <path d="M1257.64,82.38c0,5.37.12,10.38.12,10.38,0,2.63.36,8.12.36,9.67v.24c0,15.52-18.02,17.07-20.53,17.07-1.79,0-2.75-.6-3.46-2.03-2.27-5.01-7.88-7.52-15.99-10.86-1.43-.6-2.15-1.31-2.15-1.91,0-.48.48-1.07,2.15-1.07.24,0,.6.12,1.07.12,12.77,1.07,15.52,1.07,15.99,1.07,4.3,0,6.92-2.51,6.92-6.33l.12-16.35h-15.75s-20.89.12-27.21.84c-1.67-1.31-2.15-3.82-2.51-6.21,5.49.48,21.48.95,32.58.95h12.89c0-3.7-.24-9.55-1.19-12.89,3.7.12,7.4.6,10.74,1.07,2.86-3.1,5.97-6.92,8.24-9.91h-13.37c-3.94,0-21.25.36-27.21.96-1.55-1.43-2.27-3.7-2.63-6.21,8,.6,25.78,1.19,29.96,1.19h14.08c1.67-1.91,5.61-5.73,7.04-5.73.6,0,2.98.36,9.79,5.73,1.79-3.82,3.58-8.24,5.01-12.41h-67.08v1.19c0,13.25-6.45,19.1-13.25,19.1-5.49,0-7.88-4.18-7.88-7.88,0-4.18,2.98-7.04,5.37-8.35,6.21-3.7,9.67-7.52,11.46-14.8.48-1.79,1.19-2.39,1.43-2.39.72,0,2.15,3.46,2.74,8.95h46.55c5.25-10.62,8.12-20.65,8.47-28.05,3.1.6,20.29,5.73,20.29,9.43,0,1.79-1.91,2.74-4.54,2.74-.36,0-.72-.12-1.07-.12-5.37,6.33-11.58,11.82-17.31,15.99h14.68c3.22-3.82,5.49-5.85,6.56-5.85,1.79,0,15.87,8.59,15.87,13.61,0,2.39-2.63,3.46-6.09,3.46-.72,0-1.31,0-2.15-.12-4.54,2.87-11.22,6.09-15.99,8,1.31,1.43,2.15,2.74,2.15,3.82,0,2.15-2.51,3.1-5.97,3.1h-1.31c-5.25,2.03-10.74,4.18-16.35,5.97,1.43.48,2.39,1.31,2.39,2.39,0,1.31-1.67,2.51-3.82,2.86-.12,1.19-.24,3.1-.24,5.13h21.01c1.67-2.98,8.71-12.17,10.5-12.17.36,0,.6.12.95.36,3.58,2.39,14.08,10.26,14.08,13.96,0,.95-.48,2.27-2.15,2.27h-44.4ZM1213.96,12.91c-.84-.96-1.19-1.55-1.19-1.79,0-.48.36-.72,1.07-.72,3.58,0,22.44,4.42,22.44,15.64,0,3.94-2.74,8.59-8.12,8.59-3.1,0-5.49-2.03-6.56-5.61-1.91-7.16-3.46-11.94-7.64-16.11ZM1237.95,8.85c0-.24.48-.72.96-.72,2.51,0,20.77,5.85,20.77,16.83,0,3.94-2.86,8.83-8.24,8.83-3.58,0-5.85-2.74-6.56-6.56-1.79-9.91-2.74-12.53-5.97-16.71-.84-1.07-.96-1.31-.96-1.67Z" style="fill: #fff;"/>
    <path d="M1400.75,113.65c0,4.42-9.43,4.66-9.91,4.66-3.7,0-5.61-1.31-5.61-3.94v-.48c.72-16.11.72-21.25.72-24.23v-5.13c-4.65,0-12.29.36-16.71.72-1.19-1.07-2.27-3.1-2.51-5.01-.48.24-1.07.48-1.67.6-.12,1.55-.12,3.46-.12,5.37,0,3.94.12,7.52.12,7.52,0,1.91.36,10.62.36,11.94,0,1.19.24,4.18.24,4.77,0,3.46-7.16,4.3-9.31,4.3-3.1,0-5.01-1.07-5.01-3.46v-.12c.12-.84.12-3.34.12-4.65v-.36h-10.5c0,1.43.12,2.75.12,3.1,0,.6.12,3.46.12,3.94,0,3.7-6.68,4.42-8.95,4.42-2.75,0-5.61-.84-5.61-3.34v-.36c.84-7.4.84-14.2.84-16.11l.12-11.1c-6.56,8.83-14.56,15.76-15.99,15.76-.36,0-.95-.12-.95-.84,0-.48.24-.95.95-1.79,8.47-11.34,13.37-24.71,16.23-39.63-2.86.12-5.97.24-8.35.48-1.31-1.07-2.27-3.7-2.39-5.73,2.63.36,7.4.6,11.58.84.72-5.25,1.31-10.5,1.67-15.99-4.89.12-9.43.36-14.8.96-1.19-.84-2.51-3.94-2.51-5.13v-.72c4.18.36,11.46.72,17.55.84.12-3.94.24-7.76.24-11.82v-4.06c-3.58,0-7.52.24-10.86.72-1.31-1.07-2.27-3.7-2.39-5.73,4.42.6,16.35,1.07,17.66,1.07h14.44c2.27-2.86,5.37-6.09,6.56-6.09.12,0,.48,0,.84.12.95.48,10.74,6.21,10.74,9.19,0,1.55-1.31,2.51-3.82,3.34-.12,1.91-.24,5.37-.24,9.19v3.7c2.03-6.68,2.98-8,4.18-8,.95,0,4.06,5.25,4.89,6.68,4.54.36,10.38.48,18.5.48h3.22c2.03-10.38,3.46-17.55,3.46-26.85,2.03.36,19.1,3.82,19.1,7.76,0,1.55-1.79,2.39-4.42,2.39h-.36c-3.58,5.97-8.12,11.82-12.89,16.71h5.25c1.31-2.27,5.97-9.31,7.52-9.31.24,0,.48,0,.72.24,3.34,1.79,10.98,8.12,10.98,10.86,0,1.19-.84,2.27-2.39,2.27h-21.13v18.26h2.15c1.07-1.91,5.97-9.55,7.4-9.55,1.79,0,11.58,8.35,11.58,11.22,0,1.19-.96,2.39-2.51,2.39h-18.62v19.57h4.65c1.43-2.51,6.92-10.38,8.24-10.38,1.55,0,12.53,8.95,12.53,12.05,0,1.19-.72,2.39-2.51,2.39h-22.92v4.54c0,3.34,0,10.62.12,15.28,0,1.55.12,6.92.24,9.07v.24ZM1385.95,60.89c-4.18.12-9.43.36-13.49.84-1.31-1.19-2.51-3.58-2.51-5.01v-.72c4.54.48,9.07.6,15.99.72v-18.14c-3.58.12-8.24.24-12.17.6-.36.36-.95.6-1.55.6h-8.47c0,3.22.12,5.61.12,5.61,0,1.91.24,9.07.36,10.38,0,1.19.24,3.58.24,4.18v.12c0,3.34-5.13,4.3-9.07,4.3-3.22,0-5.01-1.07-5.01-3.34v-.24l.12-.72h-10.5c-.96,3.58-2.15,7.04-3.34,10.38-.24.24-.36.6-.48.95,2.15.84,4.18,1.91,5.85,2.86h8.47c2.63-3.22,5.25-5.85,6.09-5.85.12,0,12.29,4.65,12.29,9.07,0,.84-.48,1.55-1.19,2.15,4.77.48,10.5.84,18.26.84v-19.57ZM1350.62,56c0-1.43.12-7.4.12-9.79v-6.45h-7.16c-.6,5.73-1.55,11.22-2.63,16.35h9.67v-.12ZM1351.58,78.2h-10.62v23.99h10.5c0-2.74.12-5.97.12-7.16v-16.83ZM1350.74,19.83h-6.09c-.12,5.61-.36,10.74-.84,15.87h6.92v-15.87ZM1372.35,12.43c-.72-.84-.96-1.31-.96-1.55,0-.72.72-.84,1.07-.84.96,0,20.29,3.82,20.29,14.92,0,4.18-2.75,8.71-8,8.71-2.86,0-5.37-2.03-6.21-5.85-1.55-8.35-3.1-12.17-6.21-15.4Z" style="fill: #fff;"/>
    <path d="M1475.95,63.4c0-6.68,5.37-12.06,12.06-12.06s12.05,5.37,12.05,12.06-5.37,12.05-12.05,12.05-12.06-5.37-12.06-12.05Z" style="fill: #fff;"/>
  </g>
  <g id="text_a">
    <text transform="translate(0 382.31) scale(1.01 1)" style="fill: #fff; font-family: TimesNewRomanPS-BoldMT, &apos;Times New Roman&apos;; font-size: 78.17px; font-weight: 700;"><tspan x="0" y="0">All Colleges Students</tspan><tspan x="707.95" y="0" style="letter-spacing: -.07em;">’</tspan><tspan x="728.18" y="0" xml:space="preserve"> Rep</tspan><tspan x="882.35" y="0" style="letter-spacing: -.02em;">r</tspan><tspan x="915.63" y="0">esentative Council</tspan></text>
  </g>
  <g id="tri_B">
    <polygon points=".22 .37 .22 268.64 155.1 .37 .22 .37" style="fill: #fff;"/>
  </g>
  <g id="tri_C">
    <polygon points="268.95 .19 113.86 268.82 268.95 268.82 268.95 .19" style="fill: #1eb8cb;"/>
  </g>
</svg>